<?xml version="1.0" encoding="utf-8"?>
<!-- Generator: Adobe Illustrator 25.3.1, SVG Export Plug-In . SVG Version: 6.00 Build 0)  -->
<svg version="1.1" id="Layer_1" xmlns="http://www.w3.org/2000/svg" xmlns:xlink="http://www.w3.org/1999/xlink" x="0px" y="0px"
	 viewBox="0 0 45 45" style="enable-background:new 0 0 45 45;" xml:space="preserve">
<style type="text/css">
	.st0{fill:#3576C1;}
	.st1{fill:#FFFFFF;}
</style>
<g>
	<path class="st0" d="M38.42,29.15V16.67c0-1.79-0.96-3.45-2.51-4.34l-10.8-6.24c-1.55-0.9-3.46-0.9-5.02,0l-10.8,6.24
		c-1.55,0.9-2.51,2.55-2.51,4.34v12.47c0,1.79,0.96,3.45,2.51,4.34l10.8,6.24c1.55,0.9,3.46,0.9,5.02,0l10.8-6.24
		C37.46,32.6,38.42,30.94,38.42,29.15z"/>
	<path class="st1" d="M26.48,32.23h-7.76c-2.6,0-4.71-2.11-4.71-4.71V19.4c0-2.6,2.11-4.71,4.71-4.71h7.76
		c2.6,0,4.71,2.11,4.71,4.71v8.11C31.2,30.12,29.08,32.23,26.48,32.23z"/>
	<rect x="13.01" y="19.31" class="st0" width="19.17" height="1.88"/>
	<path class="st1" d="M20.66,14.93v-1.47c0-0.38-0.3-0.68-0.68-0.68h0c-0.38,0-0.68,0.3-0.68,0.68v1.47c0,0.38,0.3,0.68,0.68,0.68
		l0,0C20.36,15.61,20.66,15.3,20.66,14.93z"/>
	<path class="st1" d="M25.96,14.93v-1.47c0-0.38-0.3-0.68-0.68-0.68l0,0c-0.38,0-0.68,0.3-0.68,0.68v1.47c0,0.38,0.3,0.68,0.68,0.68
		l0,0C25.66,15.61,25.96,15.3,25.96,14.93z"/>
	<circle class="st0" cx="19.02" cy="24.94" r="1.06"/>
	<circle class="st0" cx="19.02" cy="28.11" r="1.06"/>
	<circle class="st0" cx="22.31" cy="24.94" r="1.06"/>
</g>
</svg>
